<svg width="145" height="43" viewBox="0 0 145 43" fill="none" xmlns="http://www.w3.org/2000/svg">
	<rect x="0.881195" y="0.5" width="143.196" height="42" rx="8" fill="black" />
	<path d="M17.3609 9.26746C17.0731 9.55528 16.8812 10.035 16.8812 10.6106V31.8136C16.8812 32.3892 17.0731 32.8689 17.3609 33.1568L17.4568 33.2527L29.3535 21.356V21.1641L17.3609 9.26746Z" fill="url(#paint0_linear_42_6285)" />
	<path d="M33.2871 25.2896L29.3535 21.3561V21.1642L33.2871 17.2306L33.383 17.3265L38.0841 20.0129C39.4273 20.7804 39.4273 22.0276 38.0841 22.7952L33.2871 25.2896Z" fill="url(#paint1_linear_42_6285)" />
	<path d="M33.2871 25.2897L29.2576 21.2601L17.3609 33.1568C17.8406 33.6365 18.5122 33.6365 19.3757 33.2528L33.2871 25.2897Z" fill="url(#paint2_linear_42_6285)" />
	<path d="M33.2871 17.1347L19.2797 9.17158C18.5122 8.69188 17.7447 8.78782 17.3609 9.26752L29.3535 21.2601L33.2871 17.1347Z" fill="url(#paint3_linear_42_6285)" />
	<path opacity="0.2" d="M33.2871 25.1937L19.2797 33.0609C18.5122 33.5406 17.8406 33.4446 17.3609 33.0609L17.265 33.1568L17.3609 33.2528C17.8406 33.6365 18.5122 33.7325 19.2797 33.2528L33.2871 25.1937Z" fill="white" />
	<path opacity="0.12" d="M17.3609 33.0609C17.0731 32.6771 16.8812 32.2933 16.8812 31.7177V31.8136C16.8812 32.3893 17.0731 32.869 17.3609 33.1568V33.0609ZM37.9882 22.4114L33.1912 25.0978L33.2871 25.1937L37.9882 22.5074C38.6598 22.1236 38.9476 21.6439 38.9476 21.1642C38.9476 21.6439 38.6598 22.1236 37.9882 22.4114Z" fill="white" />
	<path opacity="0.25" d="M19.2797 9.36345L37.9882 19.917C38.5639 20.3007 38.9476 20.6845 38.9476 21.1642C38.9476 20.6845 38.6598 20.2048 37.9882 19.821L19.2797 9.17157C17.9365 8.40404 16.8812 9.07563 16.8812 10.6107V10.7066C16.8812 9.17157 17.9365 8.59592 19.2797 9.36345Z" fill="white" />
	<path d="M128.077 22.9871L123.184 34.3081H121.361L123.184 30.2786L120.018 22.9871H121.937L124.047 28.1679H124.143L126.158 22.9871H128.077ZM108.889 22.4114C108.889 24.714 106.97 26.1531 104.955 26.1531H102.461V30.6624H100.638V18.6697H104.955C106.97 18.6697 108.889 20.1089 108.889 22.4114ZM107.162 22.4114C107.162 21.452 106.394 20.3967 105.051 20.3967H102.461V24.5221H105.051C106.394 24.5221 107.162 23.3708 107.162 22.4114ZM119.73 26.0572V30.6624H118.003V29.703H117.907C117.523 30.3745 116.852 30.8542 115.604 30.8542C114.069 30.8542 112.63 29.7989 112.63 28.1679C112.63 26.441 114.357 25.4816 116.084 25.4816C116.948 25.4816 117.619 25.7694 117.907 25.9613V25.8653C117.907 24.9059 116.948 24.3303 115.988 24.3303C115.317 24.3303 114.645 24.5221 114.357 25.1937L112.726 24.5221C113.302 23.2749 114.645 22.6993 115.892 22.6993C118.195 22.7952 119.73 23.9465 119.73 26.0572ZM118.003 27.4004C117.523 27.2085 117.14 27.0166 116.372 27.0166C115.509 27.0166 114.453 27.4004 114.453 28.2638C114.453 29.0314 115.317 29.3192 115.892 29.3192C116.948 29.3192 117.907 28.5517 118.003 27.4004ZM67.8259 26.8247C67.8259 29.1273 66.003 30.9502 63.7004 30.9502C61.3978 30.9502 59.5749 29.2232 59.5749 26.8247C59.5749 24.4262 61.3978 22.6993 63.7004 22.6993C66.003 22.6993 67.8259 24.5221 67.8259 26.8247ZM66.0989 26.8247C66.0989 25.3856 65.0436 24.3303 63.7963 24.3303C62.5491 24.3303 61.4938 25.2897 61.4938 26.8247C61.4938 28.2638 62.5491 29.3192 63.7963 29.3192C65.0436 29.3192 66.0989 28.2638 66.0989 26.8247ZM53.1469 24.0424V25.7694H57.2724C57.1764 26.7288 56.7926 27.4963 56.3129 27.976C55.7373 28.5517 54.7779 29.2232 53.1469 29.2232C50.5565 29.2232 48.6377 27.2085 48.6377 24.6181C48.6173 23.7204 48.8643 22.8369 49.3472 22.0799C49.8301 21.3229 50.5272 20.7265 51.3498 20.3666C52.1725 20.0067 53.0836 19.8995 53.9673 20.0586C54.851 20.2177 55.6675 20.6359 56.3129 21.2601L57.5602 20.0129C56.4031 18.8935 54.8527 18.2734 53.2428 18.286C49.789 18.286 46.8148 21.1642 46.8148 24.6181C46.8148 28.072 49.789 30.9502 53.2428 30.9502C55.1617 30.9502 56.5048 30.3745 57.6561 29.1273C58.8074 27.976 59.1912 26.345 59.1912 25.0978C59.1912 24.714 59.1912 24.3303 59.0952 24.0424H53.1469ZM76.7484 26.8247C76.7484 29.1273 74.9255 30.9502 72.6229 30.9502C72.0775 30.9633 71.5352 30.8656 71.0287 30.6629C70.5223 30.4603 70.0622 30.1569 69.6765 29.7711C69.2908 29.3854 68.9874 28.9254 68.7847 28.4189C68.582 27.9124 68.4843 27.3701 68.4974 26.8247C68.4974 24.4262 70.3203 22.6993 72.6229 22.6993C74.9255 22.7952 76.7484 24.5221 76.7484 26.8247ZM75.0214 26.8247C75.0214 25.3856 73.9661 24.3303 72.7188 24.3303C71.4716 24.3303 70.4163 25.2897 70.4163 26.8247C70.4163 28.2638 71.4716 29.3192 72.7188 29.3192C73.9661 29.3192 75.0214 28.2638 75.0214 26.8247ZM96.8 25.8653L91.3314 28.1679C91.7152 29.0314 92.3867 29.4151 93.3461 29.4151C94.3056 29.4151 94.8812 28.9354 95.3609 28.2638L96.8 29.2232C96.3265 29.9646 95.6222 30.5297 94.7959 30.8315C93.9695 31.1332 93.0669 31.1549 92.227 30.8931C91.3871 30.6313 90.6566 30.1006 90.148 29.3828C89.6394 28.665 89.381 27.7998 89.4126 26.9207C89.4126 24.5221 91.1395 22.7952 93.2502 22.7952C95.3609 22.7952 96.4163 24.5221 96.7041 25.3856L96.8 25.8653ZM94.6893 25.1937C94.4974 24.714 93.9218 24.3303 93.1543 24.3303C92.1949 24.3303 90.9476 25.0978 91.0436 26.7288L94.6893 25.1937ZM109.944 30.6624H111.767V18.6697H109.944V30.6624ZM86.6303 30.6624H88.4532V18.6697H86.6303V30.6624ZM83.6561 22.9871H85.3831V30.2786C85.3831 33.2528 83.5602 34.5 81.5454 34.5C79.5307 34.5 78.3794 33.1568 77.8997 32.1015L79.4347 31.4299C79.7225 32.1015 80.3941 32.869 81.4495 32.869C82.7926 32.869 83.6561 32.0055 83.6561 30.4705V29.8948H83.5602C83.1764 30.3745 82.4089 30.8542 81.4495 30.8542C79.4347 30.8542 77.5159 29.0314 77.5159 26.8247C77.5159 24.5221 79.3388 22.6993 81.4495 22.6993C82.4089 22.6993 83.1764 23.179 83.5602 23.6587H83.6561V22.9871ZM83.7521 26.8247C83.7521 25.3856 82.7926 24.3303 81.5454 24.3303C80.2982 24.3303 79.2428 25.3856 79.2428 26.8247C79.2428 28.2638 80.2982 29.3192 81.5454 29.3192C82.7926 29.3192 83.7521 28.2638 83.7521 26.8247ZM73.7742 13.6808C73.1985 13.1052 72.9107 12.4336 72.9107 11.5701C72.9107 10.7066 73.1985 10.0351 73.7742 9.45941C74.3498 8.78782 75.0214 8.5 75.8849 8.5C76.7484 8.5 77.42 8.78782 77.9956 9.36347C78.5712 9.93911 78.8591 10.6107 78.8591 11.4742C78.8591 12.3376 78.5712 13.0092 77.9956 13.5849C77.42 14.1605 76.7484 14.4483 75.8849 14.4483C75.0214 14.5443 74.3498 14.2565 73.7742 13.6808ZM73.6783 11.5701C73.6783 12.2417 73.8701 12.8173 74.3498 13.2011C74.7336 13.6808 75.3093 13.8727 75.8849 13.8727C76.4605 13.8727 77.0362 13.6808 77.42 13.2011C77.8037 12.8173 78.0915 12.2417 78.0915 11.5701C78.0915 10.8985 77.8997 10.3229 77.42 9.93911C77.0362 9.45941 76.4605 9.26753 75.8849 9.26753C75.3093 9.26753 74.7336 9.45941 74.3498 9.93911C73.8701 10.3229 73.6783 10.8985 73.6783 11.5701ZM49.9808 14.5443C50.8443 14.5443 51.5159 14.2565 52.0915 13.6808C52.5712 13.2011 52.7631 12.5295 52.7631 11.762V11.2823H49.9808V11.9539H52.0915C52.0915 12.4336 51.8997 12.8173 51.6118 13.1052C51.2281 13.4889 50.6524 13.7768 49.9808 13.7768C49.4052 13.7768 48.8295 13.5849 48.4458 13.1052C47.9661 12.7214 47.7742 12.1458 47.7742 11.4742C47.7742 10.8026 47.9661 10.2269 48.4458 9.84317C48.9255 9.45941 49.4052 9.17159 49.9808 9.17159C50.6524 9.17159 51.1321 9.36347 51.5159 9.84317L52.0915 9.45941C51.8997 9.17159 51.6118 8.9797 51.2281 8.78782C50.8443 8.59594 50.4605 8.5 49.9808 8.5C49.1174 8.5 48.4458 8.78782 47.8701 9.36347C47.2945 9.93911 47.0067 10.6107 47.0067 11.4742C47.0067 12.3376 47.2945 13.0092 47.8701 13.5849C48.4458 14.2565 49.2133 14.5443 49.9808 14.5443ZM57.2724 13.6808H54.6819V11.8579H57.0805V11.1863H54.6819V9.36347H57.2724V8.69188H53.9144V14.4483H57.2724V13.6808ZM60.4384 14.4483V9.36347H61.9735V8.69188H58.0399V9.36347H59.6709V14.4483H60.4384ZM65.6192 8.69188H64.8517V14.4483H65.6192V8.69188ZM68.8812 14.4483V9.36347H70.5122V8.69188H66.5786V9.36347H68.2096V14.4483H68.8812ZM80.586 10.8026V9.65129L83.5602 14.3524H84.3277V8.59594H83.5602V13.1052L80.7779 8.59594H79.9144V14.3524H80.6819V10.8026H80.586Z" fill="white" />
	<defs>
		<linearGradient id="paint0_linear_42_6285" x1="28.231" y1="10.3708" x2="12.1225" y2="26.4697" gradientUnits="userSpaceOnUse">
			<stop stop-color="#00A0FF" />
			<stop offset="0.01" stop-color="#00A1FF" />
			<stop offset="0.26" stop-color="#00BEFF" />
			<stop offset="0.51" stop-color="#00D2FF" />
			<stop offset="0.76" stop-color="#00DFFF" />
			<stop offset="1" stop-color="#00E3FF" />
		</linearGradient>
		<linearGradient id="paint1_linear_42_6285" x1="39.7727" y1="21.2025" x2="16.5646" y2="21.2025" gradientUnits="userSpaceOnUse">
			<stop stop-color="#FFE000" />
			<stop offset="0.41" stop-color="#FFBD00" />
			<stop offset="0.78" stop-color="#FFA500" />
			<stop offset="1" stop-color="#FF9C00" />
		</linearGradient>
		<linearGradient id="paint2_linear_42_6285" x1="31.1284" y1="23.4092" x2="9.30186" y2="45.2358" gradientUnits="userSpaceOnUse">
			<stop stop-color="#FF3A44" />
			<stop offset="1" stop-color="#C31162" />
		</linearGradient>
		<linearGradient id="paint3_linear_42_6285" x1="14.3196" y1="2.18708" x2="24.0672" y2="11.9347" gradientUnits="userSpaceOnUse">
			<stop stop-color="#32A071" />
			<stop offset="0.07" stop-color="#2DA771" />
			<stop offset="0.48" stop-color="#15CF74" />
			<stop offset="0.8" stop-color="#06E775" />
			<stop offset="1" stop-color="#00F076" />
		</linearGradient>
	</defs>
</svg>
